<?xml version="1.0" standalone="no"?><!DOCTYPE svg PUBLIC "-//W3C//DTD SVG 1.1//EN" "http://www.w3.org/Graphics/SVG/1.1/DTD/svg11.dtd"><svg t="1694184571897" class="icon" viewBox="0 0 1024 1024" version="1.1" xmlns="http://www.w3.org/2000/svg" p-id="1074" xmlns:xlink="http://www.w3.org/1999/xlink" width="200" height="200"><path d="M527.2 942.9c-108.1 0-211-40.8-289.8-114.8l32.9-35c69.8 65.6 161.1 101.7 256.9 101.7 206.9 0 375.3-168.3 375.3-375.3 0-50.4-9.8-99.2-29.1-145.3l44.3-18.6c21.8 51.9 32.9 107.1 32.9 163.9 0 57.1-11.2 112.6-33.3 164.8-21.3 50.4-51.8 95.7-90.7 134.5-38.9 38.9-84.1 69.4-134.5 90.7-52.3 22.2-107.8 33.4-164.9 33.4zM201 773.9c-7.5 0-14.9-3.5-19.6-10.1-50.7-71.7-77.5-156.1-77.5-244.1 0-57.1 11.2-112.6 33.3-164.8 21.3-50.4 51.8-95.7 90.7-134.5S312 151 362.4 129.7c52.2-22.1 107.6-33.3 164.8-33.3 67.6 0 134.9 16.3 194.5 47.2 57.7 29.9 108.5 73.5 147 126 7.8 10.7 5.5 25.7-5.2 33.5-10.7 7.8-25.7 5.5-33.5-5.2-70.5-96.2-183.7-153.6-302.8-153.6-206.9 0-375.3 168.3-375.3 375.3 0 78.1 23.7 152.9 68.7 216.4 7.7 10.8 5.1 25.8-5.7 33.5-4.3 3-9.1 4.4-13.9 4.4z" fill="#4552FF" p-id="1075"></path><path d="M81.6 888.6c-31 0-53.1-9.1-65.7-27.1C-1.3 837 3 802 28.5 757.3c20.8-36.5 55.4-79.6 102.7-128 9.3-9.5 24.5-9.7 33.9-0.4 9.5 9.3 9.7 24.5 0.4 33.9-43.8 44.9-76.8 85.8-95.3 118.3-18.4 32.3-18.1 48.4-15 52.8 5.6 8 45.8 18.1 163.3-30 102.2-41.9 227.6-113.3 353-201.1C696.8 515 806.8 421.6 881.1 339.9c85.4-94 89.7-135.2 84.1-143.2-6-8.5-49.3-18.7-176.4 35.5-12.2 5.2-26.3-0.5-31.5-12.7-5.2-12.2 0.5-26.3 12.7-31.5 55.9-23.8 103.2-38.6 140.6-43.9 46.2-6.5 77.8 1.9 94 25 15.6 22.3 13.5 53.4-6.4 92.5-15.9 31.4-43.4 68.6-81.5 110.6C840 456.4 727.2 552.3 599 642.1c-128.2 89.8-256.9 163-362.3 206.2-52.5 21.5-96.8 34.6-131.8 38.8-8.3 1-16 1.5-23.3 1.5z" fill="#4552FF" p-id="1076"></path><path d="M681.7 279.7H581c-13.3 0-24-10.7-24-24s10.7-24 24-24h100.7c13.3 0 24 10.7 24 24s-10.7 24-24 24z" fill="#4552FF" p-id="1077"></path><path d="M631.4 330c-13.3 0-24-10.7-24-24V205.3c0-13.3 10.7-24 24-24s24 10.7 24 24V306c0 13.3-10.8 24-24 24z" fill="#4552FF" p-id="1078"></path></svg>